<mxfile host="app.diagrams.net" modified="2022-09-22T14:40:57.116Z" agent="5.0 (Windows NT 10.0; Win64; x64) AppleWebKit/537.36 (KHTML, like Gecko) Chrome/105.0.0.0 Safari/537.36" etag="HcU8gElaWhZmiQOE2Vh5" version="20.3.5" type="github">
  <diagram id="C5RBs43oDa-KdzZeNtuy" name="Page-1">
    <mxGraphModel dx="3043" dy="1016" grid="1" gridSize="10" guides="1" tooltips="1" connect="1" arrows="1" fold="1" page="1" pageScale="1" pageWidth="827" pageHeight="1169" math="0" shadow="0">
      <root>
        <mxCell id="WIyWlLk6GJQsqaUBKTNV-0" />
        <mxCell id="WIyWlLk6GJQsqaUBKTNV-1" parent="WIyWlLk6GJQsqaUBKTNV-0" />
        <mxCell id="WIyWlLk6GJQsqaUBKTNV-2" value="" style="rounded=0;html=1;jettySize=auto;orthogonalLoop=1;fontSize=11;endArrow=block;endFill=0;endSize=8;strokeWidth=1;shadow=0;labelBackgroundColor=none;edgeStyle=orthogonalEdgeStyle;entryX=0.5;entryY=0;entryDx=0;entryDy=0;" parent="WIyWlLk6GJQsqaUBKTNV-1" target="_cH3AGbi2QUjjRl9QHyZ-6" edge="1">
          <mxGeometry relative="1" as="geometry">
            <mxPoint x="220" y="120" as="sourcePoint" />
            <Array as="points">
              <mxPoint x="220" y="200" />
              <mxPoint x="220" y="200" />
            </Array>
          </mxGeometry>
        </mxCell>
        <mxCell id="_cH3AGbi2QUjjRl9QHyZ-0" value="Start" style="ellipse;whiteSpace=wrap;html=1;" vertex="1" parent="WIyWlLk6GJQsqaUBKTNV-1">
          <mxGeometry x="160" y="40" width="120" height="80" as="geometry" />
        </mxCell>
        <mxCell id="_cH3AGbi2QUjjRl9QHyZ-1" value="" style="endArrow=classic;html=1;rounded=0;exitX=0.5;exitY=1;exitDx=0;exitDy=0;entryX=0.5;entryY=0;entryDx=0;entryDy=0;" edge="1" parent="WIyWlLk6GJQsqaUBKTNV-1" source="_cH3AGbi2QUjjRl9QHyZ-6" target="_cH3AGbi2QUjjRl9QHyZ-7">
          <mxGeometry width="50" height="50" relative="1" as="geometry">
            <mxPoint x="390" y="400" as="sourcePoint" />
            <mxPoint x="330" y="230" as="targetPoint" />
            <Array as="points" />
          </mxGeometry>
        </mxCell>
        <mxCell id="_cH3AGbi2QUjjRl9QHyZ-6" value="Get size of steak" style="shape=parallelogram;perimeter=parallelogramPerimeter;whiteSpace=wrap;html=1;fixedSize=1;" vertex="1" parent="WIyWlLk6GJQsqaUBKTNV-1">
          <mxGeometry x="160" y="200" width="120" height="60" as="geometry" />
        </mxCell>
        <mxCell id="_cH3AGbi2QUjjRl9QHyZ-7" value="if size of steak = small" style="rhombus;whiteSpace=wrap;html=1;" vertex="1" parent="WIyWlLk6GJQsqaUBKTNV-1">
          <mxGeometry x="140" y="320" width="160" height="120" as="geometry" />
        </mxCell>
        <mxCell id="_cH3AGbi2QUjjRl9QHyZ-8" value="" style="endArrow=classic;html=1;rounded=0;exitX=0;exitY=0.5;exitDx=0;exitDy=0;entryX=0.6;entryY=0.017;entryDx=0;entryDy=0;entryPerimeter=0;" edge="1" parent="WIyWlLk6GJQsqaUBKTNV-1" source="_cH3AGbi2QUjjRl9QHyZ-7" target="_cH3AGbi2QUjjRl9QHyZ-12">
          <mxGeometry width="50" height="50" relative="1" as="geometry">
            <mxPoint x="220" y="380" as="sourcePoint" />
            <mxPoint x="100" y="520" as="targetPoint" />
          </mxGeometry>
        </mxCell>
        <mxCell id="_cH3AGbi2QUjjRl9QHyZ-9" value="" style="endArrow=classic;html=1;rounded=0;exitX=1;exitY=0.5;exitDx=0;exitDy=0;entryX=0.5;entryY=0;entryDx=0;entryDy=0;" edge="1" parent="WIyWlLk6GJQsqaUBKTNV-1" source="_cH3AGbi2QUjjRl9QHyZ-7" target="_cH3AGbi2QUjjRl9QHyZ-11">
          <mxGeometry width="50" height="50" relative="1" as="geometry">
            <mxPoint x="220" y="380" as="sourcePoint" />
            <mxPoint x="410" y="500" as="targetPoint" />
          </mxGeometry>
        </mxCell>
        <mxCell id="_cH3AGbi2QUjjRl9QHyZ-11" value="else" style="rhombus;whiteSpace=wrap;html=1;" vertex="1" parent="WIyWlLk6GJQsqaUBKTNV-1">
          <mxGeometry x="290" y="490" width="150" height="100" as="geometry" />
        </mxCell>
        <mxCell id="_cH3AGbi2QUjjRl9QHyZ-12" value="Output price 12.99" style="shape=parallelogram;perimeter=parallelogramPerimeter;whiteSpace=wrap;html=1;fixedSize=1;" vertex="1" parent="WIyWlLk6GJQsqaUBKTNV-1">
          <mxGeometry x="-40" y="495" width="190" height="90" as="geometry" />
        </mxCell>
        <mxCell id="_cH3AGbi2QUjjRl9QHyZ-13" value="" style="endArrow=classic;html=1;rounded=0;entryX=0.5;entryY=0;entryDx=0;entryDy=0;" edge="1" parent="WIyWlLk6GJQsqaUBKTNV-1" target="_cH3AGbi2QUjjRl9QHyZ-14" source="_cH3AGbi2QUjjRl9QHyZ-11">
          <mxGeometry width="50" height="50" relative="1" as="geometry">
            <mxPoint x="381.51447184205244" y="546.5256150175719" as="sourcePoint" />
            <mxPoint x="410" y="580" as="targetPoint" />
            <Array as="points" />
          </mxGeometry>
        </mxCell>
        <mxCell id="_cH3AGbi2QUjjRl9QHyZ-14" value="Output price 16.99" style="shape=parallelogram;perimeter=parallelogramPerimeter;whiteSpace=wrap;html=1;fixedSize=1;" vertex="1" parent="WIyWlLk6GJQsqaUBKTNV-1">
          <mxGeometry x="270" y="640" width="190" height="90" as="geometry" />
        </mxCell>
        <mxCell id="_cH3AGbi2QUjjRl9QHyZ-15" value="" style="endArrow=classic;html=1;rounded=0;entryX=0.333;entryY=0.033;entryDx=0;entryDy=0;entryPerimeter=0;" edge="1" parent="WIyWlLk6GJQsqaUBKTNV-1" source="_cH3AGbi2QUjjRl9QHyZ-12" target="_cH3AGbi2QUjjRl9QHyZ-18">
          <mxGeometry width="50" height="50" relative="1" as="geometry">
            <mxPoint x="160" y="700" as="sourcePoint" />
            <mxPoint x="210" y="830" as="targetPoint" />
          </mxGeometry>
        </mxCell>
        <mxCell id="_cH3AGbi2QUjjRl9QHyZ-16" value="" style="endArrow=classic;html=1;rounded=0;exitX=0.463;exitY=1.011;exitDx=0;exitDy=0;exitPerimeter=0;" edge="1" parent="WIyWlLk6GJQsqaUBKTNV-1" source="_cH3AGbi2QUjjRl9QHyZ-14" target="_cH3AGbi2QUjjRl9QHyZ-18">
          <mxGeometry width="50" height="50" relative="1" as="geometry">
            <mxPoint x="330" y="850" as="sourcePoint" />
            <mxPoint x="220" y="830" as="targetPoint" />
          </mxGeometry>
        </mxCell>
        <mxCell id="_cH3AGbi2QUjjRl9QHyZ-17" value="" style="endArrow=classic;html=1;rounded=0;exitX=0.5;exitY=1;exitDx=0;exitDy=0;entryX=0.5;entryY=0;entryDx=0;entryDy=0;" edge="1" parent="WIyWlLk6GJQsqaUBKTNV-1" source="_cH3AGbi2QUjjRl9QHyZ-18" target="_cH3AGbi2QUjjRl9QHyZ-19">
          <mxGeometry width="50" height="50" relative="1" as="geometry">
            <mxPoint x="390" y="1040" as="sourcePoint" />
            <mxPoint x="330" y="870" as="targetPoint" />
            <Array as="points" />
          </mxGeometry>
        </mxCell>
        <mxCell id="_cH3AGbi2QUjjRl9QHyZ-18" value="Get size of cabassa" style="shape=parallelogram;perimeter=parallelogramPerimeter;whiteSpace=wrap;html=1;fixedSize=1;" vertex="1" parent="WIyWlLk6GJQsqaUBKTNV-1">
          <mxGeometry x="160" y="840" width="140" height="60" as="geometry" />
        </mxCell>
        <mxCell id="_cH3AGbi2QUjjRl9QHyZ-19" value="if size of cabassa = small" style="rhombus;whiteSpace=wrap;html=1;" vertex="1" parent="WIyWlLk6GJQsqaUBKTNV-1">
          <mxGeometry x="140" y="960" width="160" height="120" as="geometry" />
        </mxCell>
        <mxCell id="_cH3AGbi2QUjjRl9QHyZ-20" value="" style="endArrow=classic;html=1;rounded=0;exitX=0;exitY=0.5;exitDx=0;exitDy=0;entryX=0.6;entryY=0.017;entryDx=0;entryDy=0;entryPerimeter=0;" edge="1" parent="WIyWlLk6GJQsqaUBKTNV-1" source="_cH3AGbi2QUjjRl9QHyZ-19" target="_cH3AGbi2QUjjRl9QHyZ-23">
          <mxGeometry width="50" height="50" relative="1" as="geometry">
            <mxPoint x="220" y="1020" as="sourcePoint" />
            <mxPoint x="100" y="1160" as="targetPoint" />
          </mxGeometry>
        </mxCell>
        <mxCell id="_cH3AGbi2QUjjRl9QHyZ-21" value="" style="endArrow=classic;html=1;rounded=0;exitX=1;exitY=0.5;exitDx=0;exitDy=0;entryX=0.5;entryY=0;entryDx=0;entryDy=0;" edge="1" parent="WIyWlLk6GJQsqaUBKTNV-1" source="_cH3AGbi2QUjjRl9QHyZ-19" target="_cH3AGbi2QUjjRl9QHyZ-22">
          <mxGeometry width="50" height="50" relative="1" as="geometry">
            <mxPoint x="220" y="1020" as="sourcePoint" />
            <mxPoint x="410" y="1140" as="targetPoint" />
          </mxGeometry>
        </mxCell>
        <mxCell id="_cH3AGbi2QUjjRl9QHyZ-22" value="else" style="rhombus;whiteSpace=wrap;html=1;spacingTop=0;textDirection=rtl;labelBackgroundColor=none;" vertex="1" parent="WIyWlLk6GJQsqaUBKTNV-1">
          <mxGeometry x="290" y="1130" width="110" height="100" as="geometry" />
        </mxCell>
        <mxCell id="_cH3AGbi2QUjjRl9QHyZ-23" value="Output price 9.99" style="shape=parallelogram;perimeter=parallelogramPerimeter;whiteSpace=wrap;html=1;fixedSize=1;" vertex="1" parent="WIyWlLk6GJQsqaUBKTNV-1">
          <mxGeometry x="-40" y="1135" width="190" height="90" as="geometry" />
        </mxCell>
        <mxCell id="_cH3AGbi2QUjjRl9QHyZ-24" value="" style="endArrow=classic;html=1;rounded=0;entryX=0.5;entryY=0;entryDx=0;entryDy=0;" edge="1" parent="WIyWlLk6GJQsqaUBKTNV-1" source="_cH3AGbi2QUjjRl9QHyZ-22" target="_cH3AGbi2QUjjRl9QHyZ-25">
          <mxGeometry width="50" height="50" relative="1" as="geometry">
            <mxPoint x="381.51447184205244" y="1186.525615017572" as="sourcePoint" />
            <mxPoint x="410" y="1220" as="targetPoint" />
            <Array as="points" />
          </mxGeometry>
        </mxCell>
        <mxCell id="_cH3AGbi2QUjjRl9QHyZ-25" value="Output price 13.99" style="shape=parallelogram;perimeter=parallelogramPerimeter;whiteSpace=wrap;html=1;fixedSize=1;" vertex="1" parent="WIyWlLk6GJQsqaUBKTNV-1">
          <mxGeometry x="270" y="1280" width="190" height="90" as="geometry" />
        </mxCell>
        <mxCell id="_cH3AGbi2QUjjRl9QHyZ-26" value="" style="endArrow=classic;html=1;rounded=0;entryX=0.447;entryY=0.004;entryDx=0;entryDy=0;entryPerimeter=0;" edge="1" parent="WIyWlLk6GJQsqaUBKTNV-1" source="_cH3AGbi2QUjjRl9QHyZ-23" target="_cH3AGbi2QUjjRl9QHyZ-40">
          <mxGeometry width="50" height="50" relative="1" as="geometry">
            <mxPoint x="160" y="1340" as="sourcePoint" />
            <mxPoint x="210" y="1480" as="targetPoint" />
          </mxGeometry>
        </mxCell>
        <mxCell id="_cH3AGbi2QUjjRl9QHyZ-27" value="" style="endArrow=classic;html=1;rounded=0;exitX=0.463;exitY=1.011;exitDx=0;exitDy=0;exitPerimeter=0;" edge="1" parent="WIyWlLk6GJQsqaUBKTNV-1" source="_cH3AGbi2QUjjRl9QHyZ-25" target="_cH3AGbi2QUjjRl9QHyZ-40">
          <mxGeometry width="50" height="50" relative="1" as="geometry">
            <mxPoint x="330" y="1490" as="sourcePoint" />
            <mxPoint x="220" y="1470" as="targetPoint" />
          </mxGeometry>
        </mxCell>
        <mxCell id="_cH3AGbi2QUjjRl9QHyZ-39" value="" style="endArrow=classic;html=1;rounded=0;exitX=0.5;exitY=1;exitDx=0;exitDy=0;entryX=0.5;entryY=0;entryDx=0;entryDy=0;" edge="1" parent="WIyWlLk6GJQsqaUBKTNV-1" source="_cH3AGbi2QUjjRl9QHyZ-40" target="_cH3AGbi2QUjjRl9QHyZ-41">
          <mxGeometry width="50" height="50" relative="1" as="geometry">
            <mxPoint x="380" y="1670" as="sourcePoint" />
            <mxPoint x="320" y="1500" as="targetPoint" />
            <Array as="points" />
          </mxGeometry>
        </mxCell>
        <mxCell id="_cH3AGbi2QUjjRl9QHyZ-40" value="Get size of water" style="shape=parallelogram;perimeter=parallelogramPerimeter;whiteSpace=wrap;html=1;fixedSize=1;" vertex="1" parent="WIyWlLk6GJQsqaUBKTNV-1">
          <mxGeometry x="150" y="1470" width="140" height="60" as="geometry" />
        </mxCell>
        <mxCell id="_cH3AGbi2QUjjRl9QHyZ-41" value="if size of water = small" style="rhombus;whiteSpace=wrap;html=1;" vertex="1" parent="WIyWlLk6GJQsqaUBKTNV-1">
          <mxGeometry x="130" y="1590" width="160" height="120" as="geometry" />
        </mxCell>
        <mxCell id="_cH3AGbi2QUjjRl9QHyZ-42" value="" style="endArrow=classic;html=1;rounded=0;exitX=0;exitY=0.5;exitDx=0;exitDy=0;entryX=0.6;entryY=0.017;entryDx=0;entryDy=0;entryPerimeter=0;" edge="1" parent="WIyWlLk6GJQsqaUBKTNV-1" source="_cH3AGbi2QUjjRl9QHyZ-41" target="_cH3AGbi2QUjjRl9QHyZ-45">
          <mxGeometry width="50" height="50" relative="1" as="geometry">
            <mxPoint x="210" y="1650" as="sourcePoint" />
            <mxPoint x="90" y="1790" as="targetPoint" />
          </mxGeometry>
        </mxCell>
        <mxCell id="_cH3AGbi2QUjjRl9QHyZ-43" value="" style="endArrow=classic;html=1;rounded=0;exitX=1;exitY=0.5;exitDx=0;exitDy=0;entryX=0.5;entryY=0;entryDx=0;entryDy=0;" edge="1" parent="WIyWlLk6GJQsqaUBKTNV-1" source="_cH3AGbi2QUjjRl9QHyZ-41" target="_cH3AGbi2QUjjRl9QHyZ-44">
          <mxGeometry width="50" height="50" relative="1" as="geometry">
            <mxPoint x="210" y="1650" as="sourcePoint" />
            <mxPoint x="400" y="1770" as="targetPoint" />
          </mxGeometry>
        </mxCell>
        <mxCell id="_cH3AGbi2QUjjRl9QHyZ-44" value="else" style="rhombus;whiteSpace=wrap;html=1;spacingTop=0;textDirection=rtl;labelBackgroundColor=none;" vertex="1" parent="WIyWlLk6GJQsqaUBKTNV-1">
          <mxGeometry x="280" y="1760" width="110" height="100" as="geometry" />
        </mxCell>
        <mxCell id="_cH3AGbi2QUjjRl9QHyZ-45" value="Output price 2.99" style="shape=parallelogram;perimeter=parallelogramPerimeter;whiteSpace=wrap;html=1;fixedSize=1;" vertex="1" parent="WIyWlLk6GJQsqaUBKTNV-1">
          <mxGeometry x="-50" y="1765" width="190" height="90" as="geometry" />
        </mxCell>
        <mxCell id="_cH3AGbi2QUjjRl9QHyZ-46" value="" style="endArrow=classic;html=1;rounded=0;entryX=0.5;entryY=0;entryDx=0;entryDy=0;" edge="1" parent="WIyWlLk6GJQsqaUBKTNV-1" source="_cH3AGbi2QUjjRl9QHyZ-44" target="_cH3AGbi2QUjjRl9QHyZ-47">
          <mxGeometry width="50" height="50" relative="1" as="geometry">
            <mxPoint x="371.51447184205244" y="1816.525615017572" as="sourcePoint" />
            <mxPoint x="400" y="1850" as="targetPoint" />
            <Array as="points" />
          </mxGeometry>
        </mxCell>
        <mxCell id="_cH3AGbi2QUjjRl9QHyZ-47" value="Output price 3.99" style="shape=parallelogram;perimeter=parallelogramPerimeter;whiteSpace=wrap;html=1;fixedSize=1;" vertex="1" parent="WIyWlLk6GJQsqaUBKTNV-1">
          <mxGeometry x="260" y="1910" width="190" height="90" as="geometry" />
        </mxCell>
        <mxCell id="_cH3AGbi2QUjjRl9QHyZ-48" value="" style="endArrow=classic;html=1;rounded=0;entryX=0.45;entryY=-0.027;entryDx=0;entryDy=0;entryPerimeter=0;" edge="1" parent="WIyWlLk6GJQsqaUBKTNV-1" source="_cH3AGbi2QUjjRl9QHyZ-45" target="_cH3AGbi2QUjjRl9QHyZ-51">
          <mxGeometry width="50" height="50" relative="1" as="geometry">
            <mxPoint x="150" y="1970" as="sourcePoint" />
            <mxPoint x="200" y="2100" as="targetPoint" />
          </mxGeometry>
        </mxCell>
        <mxCell id="_cH3AGbi2QUjjRl9QHyZ-49" value="" style="endArrow=classic;html=1;rounded=0;exitX=0.463;exitY=1.011;exitDx=0;exitDy=0;exitPerimeter=0;entryX=0.644;entryY=-0.02;entryDx=0;entryDy=0;entryPerimeter=0;" edge="1" parent="WIyWlLk6GJQsqaUBKTNV-1" source="_cH3AGbi2QUjjRl9QHyZ-47" target="_cH3AGbi2QUjjRl9QHyZ-51">
          <mxGeometry width="50" height="50" relative="1" as="geometry">
            <mxPoint x="320" y="2120" as="sourcePoint" />
            <mxPoint x="210" y="2100" as="targetPoint" />
          </mxGeometry>
        </mxCell>
        <mxCell id="_cH3AGbi2QUjjRl9QHyZ-50" value="" style="endArrow=classic;html=1;rounded=0;exitX=0.5;exitY=1;exitDx=0;exitDy=0;entryX=0.5;entryY=0;entryDx=0;entryDy=0;" edge="1" parent="WIyWlLk6GJQsqaUBKTNV-1" source="_cH3AGbi2QUjjRl9QHyZ-51" target="_cH3AGbi2QUjjRl9QHyZ-52">
          <mxGeometry width="50" height="50" relative="1" as="geometry">
            <mxPoint x="360" y="2300" as="sourcePoint" />
            <mxPoint x="300" y="2130" as="targetPoint" />
            <Array as="points" />
          </mxGeometry>
        </mxCell>
        <mxCell id="_cH3AGbi2QUjjRl9QHyZ-51" value="Get size of&lt;br&gt;&amp;nbsp;Java-Sipped" style="shape=parallelogram;perimeter=parallelogramPerimeter;whiteSpace=wrap;html=1;fixedSize=1;" vertex="1" parent="WIyWlLk6GJQsqaUBKTNV-1">
          <mxGeometry x="130" y="2100" width="140" height="60" as="geometry" />
        </mxCell>
        <mxCell id="_cH3AGbi2QUjjRl9QHyZ-52" value="if size of &lt;br&gt;Java Sipped= small" style="rhombus;whiteSpace=wrap;html=1;" vertex="1" parent="WIyWlLk6GJQsqaUBKTNV-1">
          <mxGeometry x="110" y="2220" width="160" height="120" as="geometry" />
        </mxCell>
        <mxCell id="_cH3AGbi2QUjjRl9QHyZ-53" value="" style="endArrow=classic;html=1;rounded=0;exitX=0;exitY=0.5;exitDx=0;exitDy=0;entryX=0.6;entryY=0.017;entryDx=0;entryDy=0;entryPerimeter=0;" edge="1" parent="WIyWlLk6GJQsqaUBKTNV-1" source="_cH3AGbi2QUjjRl9QHyZ-52" target="_cH3AGbi2QUjjRl9QHyZ-56">
          <mxGeometry width="50" height="50" relative="1" as="geometry">
            <mxPoint x="190" y="2280" as="sourcePoint" />
            <mxPoint x="70" y="2420" as="targetPoint" />
          </mxGeometry>
        </mxCell>
        <mxCell id="_cH3AGbi2QUjjRl9QHyZ-54" value="" style="endArrow=classic;html=1;rounded=0;exitX=1;exitY=0.5;exitDx=0;exitDy=0;entryX=0.5;entryY=0;entryDx=0;entryDy=0;" edge="1" parent="WIyWlLk6GJQsqaUBKTNV-1" source="_cH3AGbi2QUjjRl9QHyZ-52" target="_cH3AGbi2QUjjRl9QHyZ-55">
          <mxGeometry width="50" height="50" relative="1" as="geometry">
            <mxPoint x="190" y="2280" as="sourcePoint" />
            <mxPoint x="380" y="2400" as="targetPoint" />
          </mxGeometry>
        </mxCell>
        <mxCell id="_cH3AGbi2QUjjRl9QHyZ-55" value="else&amp;nbsp;" style="rhombus;whiteSpace=wrap;html=1;spacingTop=0;textDirection=rtl;labelBackgroundColor=none;" vertex="1" parent="WIyWlLk6GJQsqaUBKTNV-1">
          <mxGeometry x="220" y="2390" width="150" height="130" as="geometry" />
        </mxCell>
        <mxCell id="_cH3AGbi2QUjjRl9QHyZ-56" value="Output price 4.99" style="shape=parallelogram;perimeter=parallelogramPerimeter;whiteSpace=wrap;html=1;fixedSize=1;" vertex="1" parent="WIyWlLk6GJQsqaUBKTNV-1">
          <mxGeometry x="-70" y="2395" width="190" height="90" as="geometry" />
        </mxCell>
        <mxCell id="_cH3AGbi2QUjjRl9QHyZ-57" value="" style="endArrow=classic;html=1;rounded=0;entryX=0.5;entryY=0;entryDx=0;entryDy=0;" edge="1" parent="WIyWlLk6GJQsqaUBKTNV-1" source="_cH3AGbi2QUjjRl9QHyZ-55" target="_cH3AGbi2QUjjRl9QHyZ-58">
          <mxGeometry width="50" height="50" relative="1" as="geometry">
            <mxPoint x="351.51447184205244" y="2446.525615017572" as="sourcePoint" />
            <mxPoint x="380" y="2480" as="targetPoint" />
            <Array as="points" />
          </mxGeometry>
        </mxCell>
        <mxCell id="_cH3AGbi2QUjjRl9QHyZ-58" value="Output price 5.99" style="shape=parallelogram;perimeter=parallelogramPerimeter;whiteSpace=wrap;html=1;fixedSize=1;" vertex="1" parent="WIyWlLk6GJQsqaUBKTNV-1">
          <mxGeometry x="200" y="2570" width="190" height="90" as="geometry" />
        </mxCell>
        <mxCell id="_cH3AGbi2QUjjRl9QHyZ-59" value="" style="endArrow=classic;html=1;rounded=0;entryX=0.5;entryY=0;entryDx=0;entryDy=0;" edge="1" parent="WIyWlLk6GJQsqaUBKTNV-1" source="_cH3AGbi2QUjjRl9QHyZ-56" target="_cH3AGbi2QUjjRl9QHyZ-61">
          <mxGeometry width="50" height="50" relative="1" as="geometry">
            <mxPoint x="130" y="2600" as="sourcePoint" />
            <mxPoint x="180" y="2729.9999999999995" as="targetPoint" />
          </mxGeometry>
        </mxCell>
        <mxCell id="_cH3AGbi2QUjjRl9QHyZ-60" value="" style="endArrow=classic;html=1;rounded=0;exitX=0.463;exitY=1.011;exitDx=0;exitDy=0;exitPerimeter=0;" edge="1" parent="WIyWlLk6GJQsqaUBKTNV-1" source="_cH3AGbi2QUjjRl9QHyZ-58" target="_cH3AGbi2QUjjRl9QHyZ-61">
          <mxGeometry width="50" height="50" relative="1" as="geometry">
            <mxPoint x="300" y="2750" as="sourcePoint" />
            <mxPoint x="190" y="2729.9999999999995" as="targetPoint" />
          </mxGeometry>
        </mxCell>
        <mxCell id="_cH3AGbi2QUjjRl9QHyZ-61" value="Get item sizes and amounts" style="shape=parallelogram;perimeter=parallelogramPerimeter;whiteSpace=wrap;html=1;fixedSize=1;labelBackgroundColor=none;" vertex="1" parent="WIyWlLk6GJQsqaUBKTNV-1">
          <mxGeometry x="100" y="2730" width="140" height="80" as="geometry" />
        </mxCell>
        <mxCell id="_cH3AGbi2QUjjRl9QHyZ-62" value="Calculate subtotal, taxes and grand total" style="rounded=1;whiteSpace=wrap;html=1;labelBackgroundColor=none;" vertex="1" parent="WIyWlLk6GJQsqaUBKTNV-1">
          <mxGeometry x="130" y="2870" width="120" height="60" as="geometry" />
        </mxCell>
        <mxCell id="_cH3AGbi2QUjjRl9QHyZ-63" value="" style="endArrow=classic;html=1;rounded=0;exitX=0.5;exitY=1;exitDx=0;exitDy=0;" edge="1" parent="WIyWlLk6GJQsqaUBKTNV-1" source="_cH3AGbi2QUjjRl9QHyZ-61" target="_cH3AGbi2QUjjRl9QHyZ-62">
          <mxGeometry width="50" height="50" relative="1" as="geometry">
            <mxPoint x="120" y="2770" as="sourcePoint" />
            <mxPoint x="170" y="2720" as="targetPoint" />
          </mxGeometry>
        </mxCell>
        <mxCell id="_cH3AGbi2QUjjRl9QHyZ-64" value="Output subtotal, taxes applies and grand total" style="shape=parallelogram;perimeter=parallelogramPerimeter;whiteSpace=wrap;html=1;fixedSize=1;labelBackgroundColor=none;" vertex="1" parent="WIyWlLk6GJQsqaUBKTNV-1">
          <mxGeometry x="100" y="2980" width="160" height="90" as="geometry" />
        </mxCell>
        <mxCell id="_cH3AGbi2QUjjRl9QHyZ-65" value="" style="endArrow=classic;html=1;rounded=0;entryX=0.585;entryY=-0.001;entryDx=0;entryDy=0;entryPerimeter=0;" edge="1" parent="WIyWlLk6GJQsqaUBKTNV-1" source="_cH3AGbi2QUjjRl9QHyZ-62" target="_cH3AGbi2QUjjRl9QHyZ-64">
          <mxGeometry width="50" height="50" relative="1" as="geometry">
            <mxPoint x="120" y="2940" as="sourcePoint" />
            <mxPoint x="170" y="2890" as="targetPoint" />
          </mxGeometry>
        </mxCell>
        <mxCell id="_cH3AGbi2QUjjRl9QHyZ-66" value="End" style="ellipse;whiteSpace=wrap;html=1;labelBackgroundColor=none;" vertex="1" parent="WIyWlLk6GJQsqaUBKTNV-1">
          <mxGeometry x="110" y="3140" width="120" height="80" as="geometry" />
        </mxCell>
        <mxCell id="_cH3AGbi2QUjjRl9QHyZ-67" value="" style="endArrow=classic;html=1;rounded=0;entryX=0.554;entryY=-0.013;entryDx=0;entryDy=0;entryPerimeter=0;exitX=0.5;exitY=1;exitDx=0;exitDy=0;" edge="1" parent="WIyWlLk6GJQsqaUBKTNV-1" source="_cH3AGbi2QUjjRl9QHyZ-64" target="_cH3AGbi2QUjjRl9QHyZ-66">
          <mxGeometry width="50" height="50" relative="1" as="geometry">
            <mxPoint x="120" y="3040" as="sourcePoint" />
            <mxPoint x="170" y="2990" as="targetPoint" />
          </mxGeometry>
        </mxCell>
        <mxCell id="_cH3AGbi2QUjjRl9QHyZ-68" value="true" style="text;strokeColor=none;fillColor=none;html=1;fontSize=24;fontStyle=1;verticalAlign=middle;align=center;labelBackgroundColor=none;rotation=-45;" vertex="1" parent="WIyWlLk6GJQsqaUBKTNV-1">
          <mxGeometry x="30" y="390" width="100" height="40" as="geometry" />
        </mxCell>
        <mxCell id="_cH3AGbi2QUjjRl9QHyZ-70" value="false" style="text;strokeColor=none;fillColor=none;html=1;fontSize=24;fontStyle=1;verticalAlign=middle;align=center;labelBackgroundColor=none;rotation=30;" vertex="1" parent="WIyWlLk6GJQsqaUBKTNV-1">
          <mxGeometry x="320" y="400" width="100" height="40" as="geometry" />
        </mxCell>
        <mxCell id="_cH3AGbi2QUjjRl9QHyZ-71" value="true" style="text;strokeColor=none;fillColor=none;html=1;fontSize=24;fontStyle=1;verticalAlign=middle;align=center;labelBackgroundColor=none;rotation=-45;" vertex="1" parent="WIyWlLk6GJQsqaUBKTNV-1">
          <mxGeometry x="25" y="1050" width="100" height="40" as="geometry" />
        </mxCell>
        <mxCell id="_cH3AGbi2QUjjRl9QHyZ-72" value="false" style="text;strokeColor=none;fillColor=none;html=1;fontSize=24;fontStyle=1;verticalAlign=middle;align=center;labelBackgroundColor=none;rotation=30;" vertex="1" parent="WIyWlLk6GJQsqaUBKTNV-1">
          <mxGeometry x="315" y="1060" width="100" height="40" as="geometry" />
        </mxCell>
        <mxCell id="_cH3AGbi2QUjjRl9QHyZ-73" value="true" style="text;strokeColor=none;fillColor=none;html=1;fontSize=24;fontStyle=1;verticalAlign=middle;align=center;labelBackgroundColor=none;rotation=-45;" vertex="1" parent="WIyWlLk6GJQsqaUBKTNV-1">
          <mxGeometry x="10" y="1670" width="100" height="40" as="geometry" />
        </mxCell>
        <mxCell id="_cH3AGbi2QUjjRl9QHyZ-74" value="false" style="text;strokeColor=none;fillColor=none;html=1;fontSize=24;fontStyle=1;verticalAlign=middle;align=center;labelBackgroundColor=none;rotation=30;" vertex="1" parent="WIyWlLk6GJQsqaUBKTNV-1">
          <mxGeometry x="300" y="1680" width="100" height="40" as="geometry" />
        </mxCell>
        <mxCell id="_cH3AGbi2QUjjRl9QHyZ-75" value="true" style="text;strokeColor=none;fillColor=none;html=1;fontSize=24;fontStyle=1;verticalAlign=middle;align=center;labelBackgroundColor=none;rotation=-45;" vertex="1" parent="WIyWlLk6GJQsqaUBKTNV-1">
          <mxGeometry x="5" y="2300" width="100" height="40" as="geometry" />
        </mxCell>
        <mxCell id="_cH3AGbi2QUjjRl9QHyZ-76" value="false" style="text;strokeColor=none;fillColor=none;html=1;fontSize=24;fontStyle=1;verticalAlign=middle;align=center;labelBackgroundColor=none;rotation=30;" vertex="1" parent="WIyWlLk6GJQsqaUBKTNV-1">
          <mxGeometry x="295" y="2310" width="100" height="40" as="geometry" />
        </mxCell>
      </root>
    </mxGraphModel>
  </diagram>
</mxfile>
